<mxfile host="app.diagrams.net" modified="2021-07-19T07:21:04.057Z" agent="5.0 (Windows NT 10.0; Win64; x64) AppleWebKit/537.36 (KHTML, like Gecko) Chrome/91.0.4472.124 Safari/537.36" etag="KTbg10Q4LhLT42B2K9dy" version="14.8.6" type="github">
  <diagram id="_HgtATffB07lZR05Amc9" name="Page-1">
    <mxGraphModel dx="1422" dy="794" grid="1" gridSize="10" guides="1" tooltips="1" connect="1" arrows="1" fold="1" page="1" pageScale="1" pageWidth="827" pageHeight="1169" math="0" shadow="0">
      <root>
        <mxCell id="0" />
        <mxCell id="1" parent="0" />
        <mxCell id="9YDRaJRU-YEAJo4RSSif-1" value="分类" style="shape=table;startSize=30;container=1;collapsible=1;childLayout=tableLayout;fixedRows=1;rowLines=0;fontStyle=1;align=center;resizeLast=1;" vertex="1" parent="1">
          <mxGeometry x="130" y="170" width="180" height="160" as="geometry" />
        </mxCell>
        <mxCell id="9YDRaJRU-YEAJo4RSSif-2" value="" style="shape=partialRectangle;collapsible=0;dropTarget=0;pointerEvents=0;fillColor=none;top=0;left=0;bottom=1;right=0;points=[[0,0.5],[1,0.5]];portConstraint=eastwest;" vertex="1" parent="9YDRaJRU-YEAJo4RSSif-1">
          <mxGeometry y="30" width="180" height="30" as="geometry" />
        </mxCell>
        <mxCell id="9YDRaJRU-YEAJo4RSSif-3" value="PK" style="shape=partialRectangle;connectable=0;fillColor=none;top=0;left=0;bottom=0;right=0;fontStyle=1;overflow=hidden;" vertex="1" parent="9YDRaJRU-YEAJo4RSSif-2">
          <mxGeometry width="30" height="30" as="geometry" />
        </mxCell>
        <mxCell id="9YDRaJRU-YEAJo4RSSif-4" value="id" style="shape=partialRectangle;connectable=0;fillColor=none;top=0;left=0;bottom=0;right=0;align=left;spacingLeft=6;fontStyle=5;overflow=hidden;" vertex="1" parent="9YDRaJRU-YEAJo4RSSif-2">
          <mxGeometry x="30" width="150" height="30" as="geometry" />
        </mxCell>
        <mxCell id="9YDRaJRU-YEAJo4RSSif-5" value="" style="shape=partialRectangle;collapsible=0;dropTarget=0;pointerEvents=0;fillColor=none;top=0;left=0;bottom=0;right=0;points=[[0,0.5],[1,0.5]];portConstraint=eastwest;" vertex="1" parent="9YDRaJRU-YEAJo4RSSif-1">
          <mxGeometry y="60" width="180" height="30" as="geometry" />
        </mxCell>
        <mxCell id="9YDRaJRU-YEAJo4RSSif-6" value="" style="shape=partialRectangle;connectable=0;fillColor=none;top=0;left=0;bottom=0;right=0;editable=1;overflow=hidden;" vertex="1" parent="9YDRaJRU-YEAJo4RSSif-5">
          <mxGeometry width="30" height="30" as="geometry" />
        </mxCell>
        <mxCell id="9YDRaJRU-YEAJo4RSSif-7" value="pid" style="shape=partialRectangle;connectable=0;fillColor=none;top=0;left=0;bottom=0;right=0;align=left;spacingLeft=6;overflow=hidden;" vertex="1" parent="9YDRaJRU-YEAJo4RSSif-5">
          <mxGeometry x="30" width="150" height="30" as="geometry" />
        </mxCell>
        <mxCell id="9YDRaJRU-YEAJo4RSSif-8" value="" style="shape=partialRectangle;collapsible=0;dropTarget=0;pointerEvents=0;fillColor=none;top=0;left=0;bottom=0;right=0;points=[[0,0.5],[1,0.5]];portConstraint=eastwest;" vertex="1" parent="9YDRaJRU-YEAJo4RSSif-1">
          <mxGeometry y="90" width="180" height="30" as="geometry" />
        </mxCell>
        <mxCell id="9YDRaJRU-YEAJo4RSSif-9" value="" style="shape=partialRectangle;connectable=0;fillColor=none;top=0;left=0;bottom=0;right=0;editable=1;overflow=hidden;" vertex="1" parent="9YDRaJRU-YEAJo4RSSif-8">
          <mxGeometry width="30" height="30" as="geometry" />
        </mxCell>
        <mxCell id="9YDRaJRU-YEAJo4RSSif-10" value="name" style="shape=partialRectangle;connectable=0;fillColor=none;top=0;left=0;bottom=0;right=0;align=left;spacingLeft=6;overflow=hidden;" vertex="1" parent="9YDRaJRU-YEAJo4RSSif-8">
          <mxGeometry x="30" width="150" height="30" as="geometry" />
        </mxCell>
        <mxCell id="9YDRaJRU-YEAJo4RSSif-11" value="" style="shape=partialRectangle;collapsible=0;dropTarget=0;pointerEvents=0;fillColor=none;top=0;left=0;bottom=0;right=0;points=[[0,0.5],[1,0.5]];portConstraint=eastwest;" vertex="1" parent="9YDRaJRU-YEAJo4RSSif-1">
          <mxGeometry y="120" width="180" height="30" as="geometry" />
        </mxCell>
        <mxCell id="9YDRaJRU-YEAJo4RSSif-12" value="" style="shape=partialRectangle;connectable=0;fillColor=none;top=0;left=0;bottom=0;right=0;editable=1;overflow=hidden;" vertex="1" parent="9YDRaJRU-YEAJo4RSSif-11">
          <mxGeometry width="30" height="30" as="geometry" />
        </mxCell>
        <mxCell id="9YDRaJRU-YEAJo4RSSif-13" value="Row 3" style="shape=partialRectangle;connectable=0;fillColor=none;top=0;left=0;bottom=0;right=0;align=left;spacingLeft=6;overflow=hidden;" vertex="1" parent="9YDRaJRU-YEAJo4RSSif-11">
          <mxGeometry x="30" width="150" height="30" as="geometry" />
        </mxCell>
        <mxCell id="9YDRaJRU-YEAJo4RSSif-14" value="文档" style="shape=table;startSize=30;container=1;collapsible=1;childLayout=tableLayout;fixedRows=1;rowLines=0;fontStyle=1;align=center;resizeLast=1;" vertex="1" parent="1">
          <mxGeometry x="414" y="170" width="180" height="160" as="geometry" />
        </mxCell>
        <mxCell id="9YDRaJRU-YEAJo4RSSif-15" value="" style="shape=partialRectangle;collapsible=0;dropTarget=0;pointerEvents=0;fillColor=none;top=0;left=0;bottom=1;right=0;points=[[0,0.5],[1,0.5]];portConstraint=eastwest;" vertex="1" parent="9YDRaJRU-YEAJo4RSSif-14">
          <mxGeometry y="30" width="180" height="30" as="geometry" />
        </mxCell>
        <mxCell id="9YDRaJRU-YEAJo4RSSif-16" value="PK" style="shape=partialRectangle;connectable=0;fillColor=none;top=0;left=0;bottom=0;right=0;fontStyle=1;overflow=hidden;" vertex="1" parent="9YDRaJRU-YEAJo4RSSif-15">
          <mxGeometry width="30" height="30" as="geometry" />
        </mxCell>
        <mxCell id="9YDRaJRU-YEAJo4RSSif-17" value="id" style="shape=partialRectangle;connectable=0;fillColor=none;top=0;left=0;bottom=0;right=0;align=left;spacingLeft=6;fontStyle=5;overflow=hidden;" vertex="1" parent="9YDRaJRU-YEAJo4RSSif-15">
          <mxGeometry x="30" width="150" height="30" as="geometry" />
        </mxCell>
        <mxCell id="9YDRaJRU-YEAJo4RSSif-18" value="" style="shape=partialRectangle;collapsible=0;dropTarget=0;pointerEvents=0;fillColor=none;top=0;left=0;bottom=0;right=0;points=[[0,0.5],[1,0.5]];portConstraint=eastwest;" vertex="1" parent="9YDRaJRU-YEAJo4RSSif-14">
          <mxGeometry y="60" width="180" height="30" as="geometry" />
        </mxCell>
        <mxCell id="9YDRaJRU-YEAJo4RSSif-19" value="" style="shape=partialRectangle;connectable=0;fillColor=none;top=0;left=0;bottom=0;right=0;editable=1;overflow=hidden;" vertex="1" parent="9YDRaJRU-YEAJo4RSSif-18">
          <mxGeometry width="30" height="30" as="geometry" />
        </mxCell>
        <mxCell id="9YDRaJRU-YEAJo4RSSif-20" value="Row 1" style="shape=partialRectangle;connectable=0;fillColor=none;top=0;left=0;bottom=0;right=0;align=left;spacingLeft=6;overflow=hidden;" vertex="1" parent="9YDRaJRU-YEAJo4RSSif-18">
          <mxGeometry x="30" width="150" height="30" as="geometry" />
        </mxCell>
        <mxCell id="9YDRaJRU-YEAJo4RSSif-21" value="" style="shape=partialRectangle;collapsible=0;dropTarget=0;pointerEvents=0;fillColor=none;top=0;left=0;bottom=0;right=0;points=[[0,0.5],[1,0.5]];portConstraint=eastwest;" vertex="1" parent="9YDRaJRU-YEAJo4RSSif-14">
          <mxGeometry y="90" width="180" height="30" as="geometry" />
        </mxCell>
        <mxCell id="9YDRaJRU-YEAJo4RSSif-22" value="" style="shape=partialRectangle;connectable=0;fillColor=none;top=0;left=0;bottom=0;right=0;editable=1;overflow=hidden;" vertex="1" parent="9YDRaJRU-YEAJo4RSSif-21">
          <mxGeometry width="30" height="30" as="geometry" />
        </mxCell>
        <mxCell id="9YDRaJRU-YEAJo4RSSif-23" value="Row 2" style="shape=partialRectangle;connectable=0;fillColor=none;top=0;left=0;bottom=0;right=0;align=left;spacingLeft=6;overflow=hidden;" vertex="1" parent="9YDRaJRU-YEAJo4RSSif-21">
          <mxGeometry x="30" width="150" height="30" as="geometry" />
        </mxCell>
        <mxCell id="9YDRaJRU-YEAJo4RSSif-24" value="" style="shape=partialRectangle;collapsible=0;dropTarget=0;pointerEvents=0;fillColor=none;top=0;left=0;bottom=0;right=0;points=[[0,0.5],[1,0.5]];portConstraint=eastwest;" vertex="1" parent="9YDRaJRU-YEAJo4RSSif-14">
          <mxGeometry y="120" width="180" height="30" as="geometry" />
        </mxCell>
        <mxCell id="9YDRaJRU-YEAJo4RSSif-25" value="" style="shape=partialRectangle;connectable=0;fillColor=none;top=0;left=0;bottom=0;right=0;editable=1;overflow=hidden;" vertex="1" parent="9YDRaJRU-YEAJo4RSSif-24">
          <mxGeometry width="30" height="30" as="geometry" />
        </mxCell>
        <mxCell id="9YDRaJRU-YEAJo4RSSif-26" value="Row 3" style="shape=partialRectangle;connectable=0;fillColor=none;top=0;left=0;bottom=0;right=0;align=left;spacingLeft=6;overflow=hidden;" vertex="1" parent="9YDRaJRU-YEAJo4RSSif-24">
          <mxGeometry x="30" width="150" height="30" as="geometry" />
        </mxCell>
      </root>
    </mxGraphModel>
  </diagram>
</mxfile>
